HIERARCHY
ROOT joint_Root
{
	OFFSET 0.0 0.0 0.0
	CHANNELS 6 Xposition Yposition Zposition Zrotation Xrotation Yrotation 
	JOINT Hips
	{
		OFFSET -17.1583 93.1646 452.98
		CHANNELS 6 Xposition Yposition Zposition Zrotation Xrotation Yrotation 
		JOINT Spine
		{
			OFFSET 15.7357 0.0 0.0
			CHANNELS 6 Xposition Yposition Zposition Zrotation Xrotation Yrotation 
			JOINT Chest
			{
				OFFSET 8.98455 -0.406207 0.0
				CHANNELS 6 Xposition Yposition Zposition Zrotation Xrotation Yrotation 
				JOINT Neck
				{
					OFFSET 16.3773 0.0 0.0
					CHANNELS 6 Xposition Yposition Zposition Zrotation Xrotation Yrotation 
					JOINT Head
					{
						OFFSET 6.45672 0.0 0.0
						CHANNELS 6 Xposition Yposition Zposition Zrotation Xrotation Yrotation 
						End Site
						{
							OFFSET 0.0 0.0 0.0
						}
					}
				}
				JOINT Shoulder_L
				{
					OFFSET 12.9942 -0.242716 4.98039
					CHANNELS 6 Xposition Yposition Zposition Zrotation Xrotation Yrotation 
					JOINT UpperArm_L
					{
						OFFSET 5.34809 0.0 0.0
						CHANNELS 6 Xposition Yposition Zposition Zrotation Xrotation Yrotation 
						JOINT LowerArm_L
						{
							OFFSET 24.3286 1.87007e-05 0.0
							CHANNELS 6 Xposition Yposition Zposition Zrotation Xrotation Yrotation 
							JOINT Hand_L
							{
								OFFSET 22.2916 0.0 0.0
								CHANNELS 6 Xposition Yposition Zposition Zrotation Xrotation Yrotation 
								End Site
								{
									OFFSET 0.0 0.0 0.0
								}
							}
						}
					}
				}
				JOINT Shoulder_R
				{
					OFFSET 12.9945 -0.242716 -4.98039
					CHANNELS 6 Xposition Yposition Zposition Zrotation Xrotation Yrotation 
					JOINT UpperArm_R
					{
						OFFSET -5.34813 0.0 0.0
						CHANNELS 6 Xposition Yposition Zposition Zrotation Xrotation Yrotation 
						JOINT LowerArm_R
						{
							OFFSET -24.3289 0.000322201 0.0
							CHANNELS 6 Xposition Yposition Zposition Zrotation Xrotation Yrotation 
							JOINT Hand_R
							{
								OFFSET -22.2915 -0.000108084 0.0
								CHANNELS 6 Xposition Yposition Zposition Zrotation Xrotation Yrotation 
								End Site
								{
									OFFSET 0.0 0.0 0.0
								}
							}
						}
					}
				}
			}
		}
		JOINT UpperLeg_L
		{
			OFFSET -2.19248 -6.46944 0.0
			CHANNELS 6 Xposition Yposition Zposition Zrotation Xrotation Yrotation 
			JOINT LowerLeg_L
			{
				OFFSET 39.0811 0.0 -1.23785e-05
				CHANNELS 6 Xposition Yposition Zposition Zrotation Xrotation Yrotation 
				JOINT Foot_L
				{
					OFFSET 40.9854 0.0 -1.26872e-05
					CHANNELS 6 Xposition Yposition Zposition Zrotation Xrotation Yrotation 
					JOINT Toes_L
					{
						OFFSET 11.7543 0.0 0.0
						CHANNELS 6 Xposition Yposition Zposition Zrotation Xrotation Yrotation 
						End Site
						{
							OFFSET 0.0 0.0 0.0
						}
					}
				}
			}
		}
		JOINT UpperLeg_R
		{
			OFFSET -2.19251 6.46944 0.0
			CHANNELS 6 Xposition Yposition Zposition Zrotation Xrotation Yrotation 
			JOINT LowerLeg_R
			{
				OFFSET -39.0811 -0.00228153 -0.0401928
				CHANNELS 6 Xposition Yposition Zposition Zrotation Xrotation Yrotation 
				JOINT Foot_R
				{
					OFFSET -40.9854 0.0 0.0
					CHANNELS 6 Xposition Yposition Zposition Zrotation Xrotation Yrotation 
					JOINT Toes_R
					{
						OFFSET -11.7543 0.0 0.0
						CHANNELS 6 Xposition Yposition Zposition Zrotation Xrotation Yrotation 
						End Site
						{
							OFFSET 0.0 0.0 0.0
						}
					}
				}
			}
		}
	}
}
MOTION
Frames:	5
Frame Time:	0.0333333
0.000000 0.000000 0.000000 0.000000 0.000000 -0.000000 -2.621810 92.378300 -1.565540 87.631600 2.471150 7.479070 15.735700 0.000005 -0.000001 84.930200 86.024800 -83.875300 8.984550 -0.406207 -0.000000 0.161299 -0.772368 2.109410 16.377300 -0.000001 -0.000001 10.774000 1.882660 -2.211510 6.456720 -0.000001 -0.000000 -3.339310 0.909100 2.877630 12.994200 -0.242716 4.980390 -93.409100 9.547570 -70.244600 5.348090 -0.000007 -0.000001 -71.484700 17.768700 -1.941070 24.328600 0.000019 0.000005 11.214700 26.508400 -23.951900 22.291600 -0.000001 0.000005 -7.433770 4.994200 7.443610 12.994500 -0.242716 -4.980390 87.257100 7.496460 -69.835800 -5.348130 -0.000001 -0.000004 -68.628900 32.216000 -5.078600 -24.328900 0.000322 -0.000009 1.267910 4.650430 -15.281000 -22.291500 -0.000108 -0.000004 -2.141540 5.291750 0.302450 -2.192480 -6.469440 -0.000000 -177.286000 3.015610 0.679183 39.081100 -0.000007 -0.000012 0.259566 -0.584633 23.940800 40.985400 -0.000006 -0.000013 1.708920 6.199420 -72.530800 11.754300 -0.000000 0.000003 -0.000306 0.172631 -9.574700 -2.192510 6.469440 -0.000001 -174.818000 10.818200 -173.649000 -39.081100 -0.002282 -0.040193 0.114225 -0.395736 15.654400 -40.985400 0.000008 0.000006 4.492910 2.349730 -70.912800 -11.754300 -0.000006 -0.000006 -0.011231 0.280286 -5.183510
0.000000 0.000000 0.000000 0.000000 0.000000 -0.000000 -2.729880 92.386900 -1.673770 87.608800 2.592170 7.374060 15.735700 0.000005 -0.000001 84.237900 86.017300 -83.171000 8.984550 -0.406207 -0.000000 0.168142 -0.870206 2.133720 16.377300 -0.000001 -0.000001 10.579800 1.902640 -2.308700 6.456720 -0.000001 -0.000000 -3.461930 1.022480 2.471500 12.994200 -0.242716 4.980390 -93.446100 9.677200 -70.290900 5.348090 -0.000007 -0.000001 -70.882500 16.919200 -2.221380 24.328600 0.000019 0.000005 11.721600 26.041400 -25.295700 22.291600 -0.000001 0.000005 -8.392100 4.970090 7.950050 12.994500 -0.242716 -4.980390 87.259700 7.500580 -69.863800 -5.348130 -0.000001 -0.000004 -68.597300 32.124700 -5.106210 -24.328900 0.000322 -0.000009 1.255650 4.604750 -15.283200 -22.291500 -0.000108 -0.000004 -2.078270 5.292000 0.295440 -2.192480 -6.469440 -0.000000 -177.206000 3.203150 0.461030 39.081100 -0.000007 -0.000012 0.261285 -0.587084 23.992200 40.985400 -0.000006 -0.000013 1.612890 6.174630 -72.571700 11.754300 -0.000000 0.000003 -0.000333 0.173053 -9.557570 -2.192510 6.469440 -0.000001 -174.693000 10.898300 -173.809000 -39.081100 -0.002282 -0.040193 0.113443 -0.394807 15.584200 -40.985400 0.000008 0.000006 4.572680 2.305250 -70.858800 -11.754300 -0.000006 -0.000006 -0.011416 0.281595 -5.129920
0.000000 0.000000 0.000000 0.000000 0.000000 -0.000000 -2.848250 92.394900 -1.760120 87.578400 2.593280 7.183780 15.735700 0.000005 -0.000001 84.282500 86.036300 -83.206100 8.984550 -0.406207 -0.000000 0.130972 -0.861244 2.152290 16.377300 -0.000001 -0.000001 10.288700 1.928130 -2.414560 6.456720 -0.000001 -0.000000 -3.568610 0.998733 1.904590 12.994200 -0.242716 4.980390 -93.476800 9.765790 -70.293200 5.348090 -0.000007 -0.000001 -70.128000 15.758500 -2.394680 24.328600 0.000019 0.000005 13.100300 25.573000 -28.329500 22.291600 -0.000001 0.000005 -9.400460 4.956610 8.229900 12.994500 -0.242716 -4.980390 87.248800 7.515730 -69.826700 -5.348130 -0.000001 -0.000004 -68.567700 32.086600 -5.135900 -24.328900 0.000322 -0.000009 1.278160 4.690380 -15.273900 -22.291500 -0.000108 -0.000004 -1.947440 5.290980 0.323918 -2.192480 -6.469440 -0.000000 -177.086000 3.283120 0.189122 39.081100 -0.000007 -0.000012 0.258728 -0.580757 24.013500 40.985400 -0.000006 -0.000013 1.503310 6.129360 -72.521700 11.754300 -0.000000 0.000003 -0.000319 0.172827 -9.566740 -2.192510 6.469440 -0.000001 -174.535000 10.872100 -174.048000 -39.081100 -0.002282 -0.040193 0.111600 -0.389685 15.527700 -40.985400 0.000008 0.000006 4.546470 2.298520 -70.750200 -11.754300 -0.000006 -0.000006 -0.011357 0.281176 -5.147050
0.000000 0.000000 0.000000 0.000000 0.000000 -0.000000 -2.984270 92.404700 -1.874660 87.511700 2.551810 6.949630 15.735700 0.000005 -0.000001 84.481400 86.065100 -83.371400 8.984550 -0.406207 -0.000000 0.076384 -0.831099 2.219270 16.377300 -0.000001 -0.000001 9.974070 1.885630 -2.585040 6.456720 -0.000001 -0.000000 -3.729050 0.973974 1.052240 12.994200 -0.242716 4.980390 -93.511800 9.840460 -70.247500 5.348090 -0.000007 -0.000001 -69.315700 14.473100 -2.363880 24.328600 0.000019 0.000005 15.142800 24.493300 -33.134200 22.291600 -0.000001 0.000005 -9.824240 4.926110 8.852990 12.994500 -0.242716 -4.980390 87.261000 7.495900 -69.860600 -5.348130 -0.000001 -0.000004 -68.569600 31.948900 -5.132780 -24.328900 0.000322 -0.000009 1.290190 4.729340 -15.290000 -22.291500 -0.000108 -0.000004 -2.057760 5.291970 0.296252 -2.192480 -6.469440 -0.000000 -176.927000 3.358200 -0.164390 39.081100 -0.000007 -0.000012 0.260570 -0.582895 24.086400 40.985400 -0.000006 -0.000013 1.375300 6.043430 -72.569800 11.754300 -0.000000 0.000003 -0.000373 0.173677 -9.532230 -2.192510 6.469440 -0.000001 -174.339000 10.900900 -174.350000 -39.081100 -0.002282 -0.040193 0.108300 -0.379383 15.466200 -40.985400 0.000008 0.000006 4.486230 2.367110 -70.628400 -11.754300 -0.000006 -0.000006 -0.011234 0.280310 -5.182540
0.000000 0.000000 0.000000 0.000000 0.000000 -0.000000 -3.124050 92.411400 -1.970620 87.438800 2.526250 6.726790 15.735700 0.000005 -0.000001 84.721700 86.082400 -83.574400 8.984550 -0.406207 -0.000000 0.045065 -0.797887 2.293570 16.377300 -0.000001 -0.000001 9.609990 1.801200 -2.796240 6.456720 -0.000001 -0.000000 -3.925970 0.808857 -0.131241 12.994200 -0.242716 4.980390 -93.531200 9.827920 -70.123600 5.348090 -0.000007 -0.000001 -68.676200 12.681000 -2.178750 24.328600 0.000019 0.000005 17.891200 22.989300 -39.573600 22.291600 -0.000001 0.000005 -9.564070 4.882530 9.722530 12.994500 -0.242716 -4.980390 87.251300 7.505190 -69.817700 -5.348130 -0.000001 -0.000004 -68.512700 32.065100 -5.196780 -24.328900 0.000322 -0.000009 1.277980 4.691180 -15.269400 -22.291500 -0.000108 -0.000004 -1.901220 5.293250 0.260906 -2.192480 -6.469440 -0.000000 -176.778000 3.593720 -0.494125 39.081100 -0.000007 -0.000012 0.262622 -0.585685 24.152000 40.985400 -0.000006 -0.000013 1.224900 5.877560 -72.560400 11.754300 -0.000000 0.000003 -0.000256 0.171823 -9.607520 -2.192510 6.469440 -0.000001 -174.175000 11.098000 -174.602000 -39.081100 -0.002282 -0.040193 0.104987 -0.369933 15.365700 -40.985400 0.000008 0.000006 4.549040 2.604290 -70.539500 -11.754300 -0.000006 -0.000006 -0.011476 0.282025 -5.112320
